<svg xmlns="http://www.w3.org/2000/svg" width="21.06" height="12" viewBox="0 0 21.06 12">
  <metadata><?xpacket begin=" " id="W5M0MpCehiHzreSzNTczkc9d"?>
<x:xmpmeta xmlns:x="adobe:ns:meta/" x:xmptk="Adobe XMP Core 5.6-c138 79.159824, 2016/09/14-01:09:01        ">
   <rdf:RDF xmlns:rdf="http://www.w3.org/1999/02/22-rdf-syntax-ns#">
      <rdf:Description rdf:about=""/>
   </rdf:RDF>
</x:xmpmeta>





















<?xpacket end="w"?></metadata>
<defs>
    <style>
      .cls-1 {
        fill: #fff;
        fill-rule: evenodd;
      }
    </style>
  </defs>
  <path class="cls-1" d="M1223.49,1468c-4.02,0-7.66,2.1-10.35,5.52a0.766,0.766,0,0,0,0,.95c2.69,3.43,6.33,5.53,10.35,5.53s7.66-2.1,10.34-5.52a0.766,0.766,0,0,0,0-.95C1231.15,1470.1,1227.5,1468,1223.49,1468Zm0.29,10.22a4.239,4.239,0,1,1,4.12-3.94A4.336,4.336,0,0,1,1223.78,1478.22Zm-0.14-1.95a2.329,2.329,0,0,1-2.53-2.42A2.387,2.387,0,1,1,1223.64,1476.27Z" transform="translate(-1212.97 -1468)"/>
</svg>
