<svg xmlns="http://www.w3.org/2000/svg" width="112.125" height="112.094" viewBox="0 0 112.125 112.094">
  <metadata><?xpacket begin=" " id="W5M0MpCehiHzreSzNTczkc9d"?>
<x:xmpmeta xmlns:x="adobe:ns:meta/" x:xmptk="Adobe XMP Core 5.6-c138 79.159824, 2016/09/14-01:09:01        ">
   <rdf:RDF xmlns:rdf="http://www.w3.org/1999/02/22-rdf-syntax-ns#">
      <rdf:Description rdf:about=""/>
   </rdf:RDF>
</x:xmpmeta>





















<?xpacket end="w"?></metadata>
<defs>
    <style>
      .cls-1 {
        fill: #fff;
        fill-rule: evenodd;
      }
    </style>
  </defs>
  <path class="cls-1" d="M284.487,887.511l-20.922-15.324a1.723,1.723,0,0,0-2.419.387,1.757,1.757,0,0,0,.384,2.44l20.923,15.323a1.722,1.722,0,0,0,2.418-.387A1.756,1.756,0,0,0,284.487,887.511Zm-51.534-8.382a1.731,1.731,0,0,0-1.981-1.451l-25.537,4.087a1.748,1.748,0,0,0,.269,3.472,1.7,1.7,0,0,0,.274-0.022l25.537-4.088A1.743,1.743,0,0,0,232.953,879.129Zm69.183,2.89L263.279,853.56a1.722,1.722,0,0,0-2.418.388l-16.946,23.539-2.333-14.829a1.749,1.749,0,0,0-.693-1.14,1.717,1.717,0,0,0-1.288-.311L192.175,868.8a1.744,1.744,0,0,0-1.438,2L200,929.672a1.752,1.752,0,0,0,.693,1.14,1.717,1.717,0,0,0,1.017.333,1.769,1.769,0,0,0,.271-0.022l10.9-1.744v18.739a1.739,1.739,0,0,0,1.731,1.746h48.019a1.739,1.739,0,0,0,1.732-1.746v-4.925a22.081,22.081,0,0,0,3.352-2.381l4.314,4.352-1.388,1.4a1.758,1.758,0,0,0,0,2.47L286.31,964.84a1.72,1.72,0,0,0,2.449,0l5.224-5.269a1.758,1.758,0,0,0,0-2.47l-15.672-15.807a1.723,1.723,0,0,0-2.449,0l-1.387,1.4-4.315-4.352a22.186,22.186,0,0,0,5.281-14.442c0-.573-0.024-1.153-0.068-1.732l27.146-37.71A1.755,1.755,0,0,0,302.136,882.019ZM277.087,945l13.222,13.338-2.775,2.8L274.311,947.8Zm-64.209-56.494v7.158l-5.127.821a1.747,1.747,0,0,0,.269,3.471,1.705,1.705,0,0,0,.274-0.022l4.584-.733v11.553l-2.812.45a1.747,1.747,0,0,0,.27,3.471,1.693,1.693,0,0,0,.273-0.022l2.269-.363v11.553l-9.73,1.558-8.72-55.426,44.006-7.044,2.6,16.554-3.8,5.275H214.609A1.739,1.739,0,0,0,212.878,888.505ZM260.9,946.371H216.341V890.252H260.9v12.733a21.665,21.665,0,0,0-7.5-1.323c-0.483,0-.965.018-1.444,0.05a1.722,1.722,0,0,0-.4-0.05H225.69a1.747,1.747,0,0,0,0,3.494h15.839a22.245,22.245,0,0,0-8.95,11.41h-6.888a1.747,1.747,0,0,0,0,3.493h5.987a22.445,22.445,0,0,0-.331,3.842,22.212,22.212,0,0,0,1.309,7.568h-6.965a1.747,1.747,0,0,0,0,3.493h8.576a21.924,21.924,0,0,0,19.127,11.177,21.692,21.692,0,0,0,7.5-1.32v1.552h0Zm5.638-9.216h0a18.6,18.6,0,0,1-4.694,3.446,18.249,18.249,0,0,1-8.446,2.043,18.5,18.5,0,0,1-16.559-10.225v0a18.663,18.663,0,0,1-2.025-8.518,18.9,18.9,0,0,1,.7-5.113,18.649,18.649,0,0,1,17.881-13.632,18.245,18.245,0,0,1,8.446,2.046,18.682,18.682,0,0,1,10.028,14.66,0,0,0,0,1,0,0,19.388,19.388,0,0,1,.109,2.036A18.7,18.7,0,0,1,266.535,937.155ZM274.5,917.44a22.132,22.132,0,0,0-10.137-12.83V895.5l9.412,6.894a1.722,1.722,0,0,0,2.418-.387,1.757,1.757,0,0,0-.383-2.44l-11.447-8.383v-2.681a1.739,1.739,0,0,0-1.732-1.747h-4.314l-3.43-2.512a1.722,1.722,0,0,0-2.419.387,1.756,1.756,0,0,0,.058,2.125h-11l2.741-3.807h0l18.383-25.538L298.7,883.819Zm-21.1-8.326a14.787,14.787,0,1,0,14.66,14.786A14.74,14.74,0,0,0,253.394,909.114Zm0,26.08a11.294,11.294,0,1,1,11.2-11.294A11.258,11.258,0,0,1,253.394,935.194Zm4.918-11.6a1.721,1.721,0,0,0-2.449,0l-4.617,4.657a1.758,1.758,0,0,0,0,2.47,1.72,1.72,0,0,0,2.449,0l4.617-4.657A1.758,1.758,0,0,0,258.312,923.6Zm-1.847-7.452a1.721,1.721,0,0,0-2.449,0l-5.079,5.123a1.758,1.758,0,0,0,0,2.47,1.72,1.72,0,0,0,2.449,0l5.079-5.123A1.756,1.756,0,0,0,256.465,916.145Z" transform="translate(-190.75 -853.25)"/>
</svg>
