<svg xmlns="http://www.w3.org/2000/svg" width="107" height="109" viewBox="0 0 107 109">
  <metadata><?xpacket begin=" " id="W5M0MpCehiHzreSzNTczkc9d"?>
<x:xmpmeta xmlns:x="adobe:ns:meta/" x:xmptk="Adobe XMP Core 5.6-c138 79.159824, 2016/09/14-01:09:01        ">
   <rdf:RDF xmlns:rdf="http://www.w3.org/1999/02/22-rdf-syntax-ns#">
      <rdf:Description rdf:about=""/>
   </rdf:RDF>
</x:xmpmeta>





















<?xpacket end="w"?></metadata>
<defs>
    <style>
      .cls-1 {
        fill: #fff;
        fill-rule: evenodd;
      }
    </style>
  </defs>
  <path id="Forma_1" data-name="Forma 1" class="cls-1" d="M289.132,683a42.046,42.046,0,0,0-5.66.395,41.868,41.868,0,0,0-5.6-.395c-13.819,0-26.282,6.711-35.028,17.41a1.784,1.784,0,0,0-.223.267,55.356,55.356,0,0,0-7.121,11.512,2.23,2.23,0,0,0-.127.282,58.675,58.675,0,0,0-3.3,9.2,1.893,1.893,0,0,0-.147.583A61.391,61.391,0,0,0,230,737.5a60.5,60.5,0,0,0,4.548,23.155,1.868,1.868,0,0,0,.087.218,55.994,55.994,0,0,0,6.519,11.548,1.847,1.847,0,0,0,.2.263,51.2,51.2,0,0,0,8.9,9.288,1.827,1.827,0,0,0,.323.261A43.7,43.7,0,0,0,277.868,792a41.868,41.868,0,0,0,5.6-.395,42.046,42.046,0,0,0,5.66.395C315.527,792,337,767.552,337,737.5S315.527,683,289.132,683Zm-19.824,4.912q-0.931.486-1.841,1.013c-0.34.2-.682,0.388-1.016,0.594-0.52.32-1.028,0.658-1.535,1H261.3a39.509,39.509,0,0,1,8.6-2.928C269.7,687.689,269.507,687.809,269.308,687.912Zm-18.922,81.536h-6.731a51.857,51.857,0,0,1-4.4-7.517h7.11c0.295,0.665.6,1.325,0.915,1.975,0.137,0.28.279,0.556,0.422,0.835q0.578,1.132,1.2,2.228c0.154,0.273.3,0.549,0.461,0.82C249.69,768.351,250.037,768.9,250.386,769.448Zm-12-54.5h7.184q-0.492,1.233-.935,2.494c-0.08.233-.163,0.464-0.242,0.7q-0.405,1.212-.76,2.447H236.3A54.479,54.479,0,0,1,238.387,714.948ZM233.754,737.5c0-1.267.068-2.515,0.147-3.759h7.484c0,0.03,0,.06,0,0.091-0.069,1.214-.118,2.433-0.118,3.668,0,0.629.023,1.253,0.041,1.879h-7.476C233.807,738.752,233.754,738.133,233.754,737.5Zm7.764,5.638c0.072,0.791.164,1.577,0.265,2.358,0.008,0.057.011,0.115,0.019,0.173,0.139,1.045.308,2.081,0.5,3.107h-7.4c-0.366-1.846-.655-3.723-0.841-5.638h7.463Zm1.164-18.793c-0.049.222-.09,0.447-0.135,0.669-0.051.248-.1,0.494-0.152,0.742-0.229,1.179-.432,2.368-0.591,3.575-0.008.056-.012,0.114-0.019,0.173-0.023.159-.036,0.319-0.056,0.479h-7.451a56.855,56.855,0,0,1,.991-5.638h7.413Zm0.449,28.189c0.058,0.23.112,0.463,0.173,0.69,0.022,0.083.041,0.169,0.063,0.252,0.31,1.144.657,2.27,1.029,3.383,0.079,0.235.162,0.464,0.242,0.7,0.07,0.207.139,0.413,0.212,0.616h-7.232a54.974,54.974,0,0,1-1.846-5.638h7.359Zm6.227-45.321c-0.158.269-.308,0.547-0.462,0.819-0.415.731-.815,1.476-1.2,2.229-0.141.278-.285,0.553-0.422,0.835-0.015.03-.032,0.062-0.047,0.094h-7.038a51.184,51.184,0,0,1,4.873-7.518h6.576c-0.229.329-.46,0.656-0.683,0.991Q250.126,705.911,249.358,707.213Zm5.481-12.937h5.185c-0.466.408-.931,0.817-1.384,1.244-0.377.357-.743,0.727-1.111,1.1s-0.74.754-1.1,1.139-0.695.739-1.032,1.12c-0.3.339-.588,0.69-0.879,1.038h-6.2A45.392,45.392,0,0,1,254.839,694.276Zm-8.275,78.931h6.443c0.212,0.278.422,0.556,0.64,0.829q0.851,1.071,1.75,2.088c0.336,0.381.685,0.749,1.032,1.12q0.543,0.58,1.1,1.14c0.15,0.151.293,0.312,0.445,0.461h-5.647A46.622,46.622,0,0,1,246.564,773.207Zm23.332,14.2A40.075,40.075,0,0,1,257.75,782.6h4.541c0.241,0.186.488,0.361,0.731,0.542,0.388,0.289.777,0.58,1.173,0.857q1.107,0.773,2.254,1.479c0.335,0.2.676,0.4,1.016,0.594q0.909,0.526,1.841,1.012C269.507,787.191,269.7,787.311,269.9,787.411Zm19.236,0.83a38.669,38.669,0,0,1-4.419-.255l-0.727-.1c-0.1-.013-0.2-0.03-0.3-0.043q-0.975-.138-1.932-0.323l-0.159-.034q-0.933-.183-1.848-0.412c-0.092-.022-0.184-0.049-0.276-0.073-0.568-.146-1.135-0.3-1.695-0.472-0.17-.052-0.341-0.112-0.512-0.167-0.479-.152-0.956-0.308-1.427-0.479-0.383-.139-0.76-0.293-1.137-0.444-0.258-.1-0.518-0.2-0.772-0.3-10.094-4.275-18.464-12.682-23.557-23.428-0.047-.1-0.09-0.2-0.135-0.3-0.272-.585-0.537-1.175-0.79-1.773-0.1-.238-0.195-0.481-0.293-0.721-0.19-.466-0.377-0.934-0.554-1.408-0.114-.3-0.221-0.614-0.33-0.923-0.149-.417-0.3-0.836-0.432-1.259-0.113-.345-0.22-0.695-0.327-1.043q-0.183-.594-0.353-1.195c-0.105-.366-0.2-0.738-0.3-1.109q-0.151-.59-0.293-1.186-0.135-.569-0.259-1.142c-0.086-.4-0.165-0.8-0.242-1.207-0.073-.385-0.146-0.77-0.214-1.159-0.071-.416-0.133-0.833-0.195-1.252-0.056-.379-0.115-0.757-0.163-1.141-0.059-.451-0.1-0.907-0.151-1.362-0.037-.355-0.078-0.709-0.109-1.066-0.045-.522-0.075-1.048-0.1-1.576-0.017-.3-0.041-0.591-0.054-0.887-0.034-.827-0.055-1.66-0.055-2.5s0.021-1.671.055-2.5c0.013-.3.037-0.591,0.054-0.887,0.03-.526.06-1.054,0.1-1.576,0.031-.357.072-0.711,0.109-1.066,0.047-.455.094-0.909,0.151-1.362,0.048-.382.107-0.761,0.163-1.141,0.062-.419.124-0.836,0.195-1.252,0.066-.389.139-0.774,0.214-1.159q0.115-.606.242-1.207,0.125-.575.259-1.142,0.141-.6.293-1.186,0.144-.558.3-1.111,0.168-.6.352-1.195c0.107-.35.214-0.7,0.327-1.043,0.139-.423.285-0.842,0.434-1.261,0.109-.308.216-0.617,0.33-0.921,0.179-.474.364-0.942,0.554-1.408,0.1-.24.191-0.483,0.293-0.721,0.253-.6.518-1.188,0.79-1.773,0.047-.1.088-0.2,0.135-0.3,5.093-10.746,13.463-19.151,23.557-23.428,0.255-.107.514-0.2,0.772-0.3,0.377-.151.754-0.3,1.137-0.444,0.471-.171.948-0.325,1.427-0.479,0.171-.054.34-0.115,0.512-0.167,0.56-.171,1.127-0.327,1.695-0.472,0.091-.021.183-0.049,0.275-0.071,0.61-.153,1.225-0.288,1.847-0.412l0.159-.034q0.959-.186,1.932-0.323c0.1-.015.2-0.03,0.3-0.043l0.727-.1a39.194,39.194,0,0,1,4.421-.253c24.324,0,44.114,22.762,44.114,50.741S313.456,788.241,289.132,788.241ZM255.656,737.5c0-1.182.046-2.37,0.138-3.531a1.877,1.877,0,1,0-3.743-.3c-0.1,1.257-.15,2.546-0.15,3.828v0.039a1.861,1.861,0,0,0,1.877,1.859A1.9,1.9,0,0,0,255.656,737.5ZM321.3,726.773a1.877,1.877,0,0,0,1.819,1.421,1.918,1.918,0,0,0,.46-0.057,1.881,1.881,0,0,0,1.363-2.281c-0.315-1.256-.685-2.507-1.1-3.721a1.877,1.877,0,1,0-3.551,1.218C320.665,724.467,321,725.619,321.3,726.773Zm-7.719,37.073c-0.751.925-1.545,1.81-2.359,2.635a1.878,1.878,0,1,0,2.665,2.646c0.9-.912,1.78-1.891,2.608-2.909A1.879,1.879,0,1,0,313.576,763.846Zm-56.627-15.692a1.878,1.878,0,1,0-3.644.907c0.312,1.254.68,2.508,1.095,3.725a1.877,1.877,0,1,0,3.553-1.212C257.574,750.458,257.236,749.306,256.949,748.154Zm50.688-47.4a35.241,35.241,0,0,0-3.4-1.961,1.879,1.879,0,0,0-1.691,3.355,31.829,31.829,0,0,1,3.043,1.755,1.876,1.876,0,0,0,2.6-.548A1.882,1.882,0,0,0,307.637,700.758Zm-4.888,71.985a31.037,31.037,0,0,1-3.2,1.422,1.879,1.879,0,1,0,1.325,3.517,34.735,34.735,0,0,0,3.593-1.6A1.879,1.879,0,0,0,302.749,772.743ZM318.66,711.71c-0.73-1.08-1.515-2.131-2.334-3.125a1.878,1.878,0,1,0-2.9,2.39c0.743,0.9,1.457,1.861,2.121,2.842A1.879,1.879,0,0,0,318.66,711.71Zm5.825,23.85a1.932,1.932,0,0,0-1.878,1.94c0,1.152-.045,2.315-0.133,3.454a1.877,1.877,0,0,0,1.727,2.018q0.073,0.006.147,0.006a1.877,1.877,0,0,0,1.869-1.734c0.1-1.237.145-2.5,0.145-3.746v-0.122A1.825,1.825,0,0,0,324.485,735.56Zm-1.75,14.685a1.879,1.879,0,0,0-2.378,1.183c-0.379,1.125-.809,2.243-1.279,3.324a1.88,1.88,0,0,0,.973,2.473,1.876,1.876,0,0,0,2.47-.973c0.513-1.179.982-2.4,1.395-3.627A1.878,1.878,0,0,0,322.735,750.245Zm-29.757-54.851a33.42,33.42,0,0,0-3.846-.224h-0.079a1.846,1.846,0,0,0-1.838,1.88,1.913,1.913,0,0,0,1.917,1.879,29.765,29.765,0,0,1,3.414.2,1.624,1.624,0,0,0,.22.013A1.879,1.879,0,0,0,292.978,695.394Zm-30.309,65.725a1.878,1.878,0,1,0-3.113,2.1c0.729,1.081,1.511,2.133,2.326,3.129a1.879,1.879,0,1,0,2.9-2.385C264.045,763.062,263.331,762.1,262.669,761.119ZM258.246,717.7a1.877,1.877,0,0,0-2.472.97c-0.516,1.182-.988,2.4-1.4,3.623a1.883,1.883,0,0,0,1.176,2.385,1.874,1.874,0,0,0,2.38-1.176c0.379-1.122.813-2.24,1.286-3.326A1.877,1.877,0,0,0,258.246,717.7Zm30.886,58.37a29.515,29.515,0,0,1-3.488-.207,1.88,1.88,0,0,0-.445,3.734,33.246,33.246,0,0,0,3.934.233H289.3a1.811,1.811,0,0,0,1.8-1.879A1.952,1.952,0,0,0,289.132,776.071Zm-24.693-70.258c-0.9.911-1.783,1.887-2.611,2.9a1.879,1.879,0,1,0,2.907,2.38c0.753-.923,1.549-1.808,2.368-2.631A1.879,1.879,0,1,0,264.439,705.813Zm13.033-8.527a35.055,35.055,0,0,0-3.6,1.588,1.879,1.879,0,1,0,1.7,3.349,31.488,31.488,0,0,1,3.206-1.415A1.88,1.88,0,0,0,277.472,697.286Zm-1.821,75.528a31.982,31.982,0,0,1-3.039-1.763,1.879,1.879,0,0,0-2.057,3.144,35.58,35.58,0,0,0,3.4,1.97,1.859,1.859,0,0,0,.848.2A1.879,1.879,0,0,0,275.651,772.814Z" transform="translate(-230 -683)"/>
</svg>
