<svg xmlns="http://www.w3.org/2000/svg" width="114.781" height="114.813" viewBox="0 0 114.781 114.813">
  <metadata><?xpacket begin=" " id="W5M0MpCehiHzreSzNTczkc9d"?>
<x:xmpmeta xmlns:x="adobe:ns:meta/" x:xmptk="Adobe XMP Core 5.6-c138 79.159824, 2016/09/14-01:09:01        ">
   <rdf:RDF xmlns:rdf="http://www.w3.org/1999/02/22-rdf-syntax-ns#">
      <rdf:Description rdf:about=""/>
   </rdf:RDF>
</x:xmpmeta>





















<?xpacket end="w"?></metadata>
<defs>
    <style>
      .cls-1 {
        fill: #fff;
        fill-rule: evenodd;
      }
    </style>
  </defs>
  <path id="Shape_1_kopia_4" data-name="Shape 1 kopia 4" class="cls-1" d="M364.452,606.463H352.419c0.645-2.268,2.6-3.382,5.6-4.917,3.695-1.887,8.294-4.237,8.294-10.951,0-5.468-4-9.917-8.923-9.917s-8.924,4.449-8.924,9.917a1.859,1.859,0,1,0,3.718,0c0-3.417,2.335-6.2,5.206-6.2s5.205,2.781,5.205,6.2c0,4.224-2.382,5.654-6.267,7.639-3.5,1.79-7.862,4.017-7.862,10.088a1.859,1.859,0,0,0,1.859,1.86h14.129A1.86,1.86,0,0,0,364.452,606.463Zm68.408,23.829-2.994,1.171a57.393,57.393,0,0,0-76.585-84.17,1.859,1.859,0,0,0,2.123,3.053,53.675,53.675,0,0,1,70.731,79.742l0.745-4.623a1.859,1.859,0,1,0-3.67-.592l-1.751,10.86a1.859,1.859,0,0,0,2.513,2.028l10.243-4A1.86,1.86,0,0,0,432.86,630.292Zm-28.409-55.468A1.859,1.859,0,0,0,402.1,576l-11.9,35.7a1.859,1.859,0,1,0,3.528,1.176l11.9-35.7A1.86,1.86,0,0,0,404.451,574.824Zm20.807,6.712a1.857,1.857,0,0,0-1.566-.858h-13.88a1.86,1.86,0,0,0,0,3.719h10.975l-10.68,23.146a1.859,1.859,0,1,0,3.375,1.558l11.9-25.784A1.857,1.857,0,0,0,425.258,581.536Zm-39.242,18.977h-2.107V582.538a1.859,1.859,0,1,0-3.718,0v17.975H372.42l3.521-17.61a1.859,1.859,0,1,0-3.645-.73l-3.966,19.835a1.859,1.859,0,0,0,1.823,2.224h10.038v4.091a1.859,1.859,0,1,0,3.718,0v-4.092h2.107A1.859,1.859,0,1,0,386.016,600.513ZM419.215,639a1.859,1.859,0,0,0-2.587-.465,53.675,53.675,0,0,1-70.73-79.743l-0.8,4.962a1.86,1.86,0,0,0,1.539,2.132,1.9,1.9,0,0,0,.3.024,1.859,1.859,0,0,0,1.833-1.563l1.805-11.2a1.857,1.857,0,0,0-2.511-2.027l-10.563,4.13a1.859,1.859,0,0,0,1.354,3.463l3.314-1.3a57.393,57.393,0,0,0,76.584,84.171A1.858,1.858,0,0,0,419.215,639Z" transform="translate(-328.625 -537.031)"/>
</svg>
