<svg xmlns="http://www.w3.org/2000/svg" width="115.688" height="105.88" viewBox="0 0 115.688 105.88">
  <metadata><?xpacket begin=" " id="W5M0MpCehiHzreSzNTczkc9d"?>
<x:xmpmeta xmlns:x="adobe:ns:meta/" x:xmptk="Adobe XMP Core 5.6-c138 79.159824, 2016/09/14-01:09:01        ">
   <rdf:RDF xmlns:rdf="http://www.w3.org/1999/02/22-rdf-syntax-ns#">
      <rdf:Description rdf:about=""/>
   </rdf:RDF>
</x:xmpmeta>





















<?xpacket end="w"?></metadata>
<defs>
    <style>
      .cls-1 {
        fill: #fff;
        fill-rule: evenodd;
      }
    </style>
  </defs>
  <path id="Forma_1" data-name="Forma 1" class="cls-1" d="M315.912,1074.32v-17.31c0.083-13.2-8.806-21.96-16.444-25.45a38.576,38.576,0,0,0-6.736-2.34v-1.1a9.639,9.639,0,0,0-19.278,0v1.27a38.448,38.448,0,0,0-6.065,2.19c-8.44,3.89-16.991,13.25-17.068,25.42v17.32a42.707,42.707,0,0,1-12.926,31.37,1.923,1.923,0,0,0,1.031,3.26l18.3,3.16c3.408,0.58,6.547,1.07,9.533,1.46a19.071,19.071,0,0,0,34.378,0c2.975-.4,6.1-0.88,9.487-1.46l18.3-3.16a1.923,1.923,0,0,0,1.031-3.26C320.467,1096.77,315.912,1086.22,315.912,1074.32Zm-38.6-46.2a5.784,5.784,0,0,1,11.567,0v0.35a38.337,38.337,0,0,0-11.567.09v-0.44Zm6.136,92.41a15.458,15.458,0,0,1-12.371-6.38,120.3,120.3,0,0,0,12.35.66,118.515,118.515,0,0,0,12.4-.67A15.45,15.45,0,0,1,283.446,1120.53Zm26.021-12.22c-3.7.64-7.09,1.16-10.294,1.56H299.16c-1.414.18-2.786,0.34-4.13,0.47H295c-1.231.13-2.435,0.23-3.626,0.31-0.224.02-.447,0.03-0.669,0.05-1.031.06-2.051,0.12-3.065,0.16-0.206,0-.414.02-0.621,0.02-2.4.08-4.763,0.08-7.16,0-0.214,0-.43-0.02-0.643-0.02-1-.04-2-0.09-3.018-0.16-0.24-.02-0.482-0.03-0.724-0.05-1.155-.08-2.323-0.18-3.517-0.3-0.044,0-.086-0.01-0.131-0.01-1.334-.13-2.695-0.29-4.094-0.46h-0.018c-3.215-.41-6.62-0.93-10.335-1.57l-14.767-2.55a46.274,46.274,0,0,0,11.567-31.44v-17.31c0.066-10.47,7.5-18.56,14.827-21.93a33.7,33.7,0,0,1,6.741-2.28c0.02-.01.041,0,0.06-0.01a35.271,35.271,0,0,1,14.613-.13,0.189,0.189,0,0,0,.075,0,35.124,35.124,0,0,1,7.374,2.4c7.111,3.25,14.258,11.29,14.19,21.94v17.33a46.823,46.823,0,0,0,12.171,31.44Zm-14-67.99a29.52,29.52,0,0,0-24.038,0c-4.231,1.95-11.409,7.65-11.466,16.66a1.927,1.927,0,0,0,1.916,1.94h0.011a1.923,1.923,0,0,0,1.928-1.91c0.044-7.08,5.82-11.62,9.225-13.19a25.552,25.552,0,0,1,20.818,0A1.925,1.925,0,1,0,295.464,1040.32Zm-60.948,17.24a1.931,1.931,0,0,0-2.725,0,22.3,22.3,0,0,0,0,31.54,1.929,1.929,0,1,0,2.725-2.73,18.454,18.454,0,0,1,0-26.09A1.922,1.922,0,0,0,234.516,1057.56Zm6.754,27.72a1.93,1.93,0,0,0,1.362-3.29,12.631,12.631,0,0,1,0-17.86,1.925,1.925,0,1,0-2.725-2.72,16.476,16.476,0,0,0,0,23.3A1.909,1.909,0,0,0,241.27,1085.28Zm93.126-27.72a1.925,1.925,0,0,0-2.726,2.72,18.452,18.452,0,0,1,0,26.09,1.929,1.929,0,0,0,2.726,2.73A22.3,22.3,0,0,0,334.4,1057.56Zm-10.842,3.85a1.918,1.918,0,0,0,0,2.72,12.631,12.631,0,0,1,0,17.86,1.925,1.925,0,1,0,2.726,2.72,16.478,16.478,0,0,0,0-23.3A1.933,1.933,0,0,0,323.554,1061.41Z" transform="translate(-225.25 -1018.5)"/>
</svg>
