<svg xmlns="http://www.w3.org/2000/svg" width="98.781" height="92.53" viewBox="0 0 98.781 92.53">
  <metadata><?xpacket begin=" " id="W5M0MpCehiHzreSzNTczkc9d"?>
<x:xmpmeta xmlns:x="adobe:ns:meta/" x:xmptk="Adobe XMP Core 5.6-c138 79.159824, 2016/09/14-01:09:01        ">
   <rdf:RDF xmlns:rdf="http://www.w3.org/1999/02/22-rdf-syntax-ns#">
      <rdf:Description rdf:about=""/>
   </rdf:RDF>
</x:xmpmeta>





















<?xpacket end="w"?></metadata>
<defs>
    <style>
      .cls-1 {
        fill: #fff;
        fill-rule: evenodd;
      }
    </style>
  </defs>
  <path id="Forma_1" data-name="Forma 1" class="cls-1" d="M432.879,1213.4h0l-12.611-8.45v-28.23a1.646,1.646,0,0,0-1.636-1.66H349.825a1.646,1.646,0,0,0-1.636,1.66v28.23l-12.609,8.45h0a1.659,1.659,0,0,0-.732,1.38v51.18a1.644,1.644,0,0,0,1.636,1.65h95.491a1.644,1.644,0,0,0,1.636-1.65v-51.18A1.659,1.659,0,0,0,432.879,1213.4Zm-84.69,5.78-5.131-2.75h5.131v2.75Zm-10.069-1.66,37.616,20.16-37.616,25.2v-45.36Zm46.109,18.44,42.319,28.34H341.91Zm8.494,1.72,37.616-20.16v45.36Zm27.545-21.25H425.4l-5.133,2.75v-2.75Zm6.28-3.31h-6.28v-4.2ZM417,1178.37v42.56l-27.377,14.68-4.487-3.01a1.61,1.61,0,0,0-1.807,0l-4.486,3.01-27.379-14.68v-42.56H417Zm-68.807,34.75h-6.277l6.277-4.2v4.2Zm36.039,5.41H397.26a1.655,1.655,0,0,0,0-3.31H384.228a11.464,11.464,0,0,1-11.4-11.51v-0.49a11.4,11.4,0,1,1,22.793,0v1.22a2.467,2.467,0,1,1-4.934,0v-2.32a7.066,7.066,0,1,0-7.066,7.14,7.006,7.006,0,0,0,4.654-1.77,5.726,5.726,0,0,0,10.617-3.05v-1.22a14.669,14.669,0,1,0-29.336,0v0.49A14.762,14.762,0,0,0,384.228,1218.53Zm-0.6-12.57a3.835,3.835,0,1,1,3.794-3.84A3.82,3.82,0,0,1,383.625,1205.96Z" transform="translate(-334.844 -1175.06)"/>
</svg>
