<svg xmlns="http://www.w3.org/2000/svg" width="15" height="19" viewBox="0 0 15 19">
  <metadata><?xpacket begin=" " id="W5M0MpCehiHzreSzNTczkc9d"?>
<x:xmpmeta xmlns:x="adobe:ns:meta/" x:xmptk="Adobe XMP Core 5.6-c138 79.159824, 2016/09/14-01:09:01        ">
   <rdf:RDF xmlns:rdf="http://www.w3.org/1999/02/22-rdf-syntax-ns#">
      <rdf:Description rdf:about=""/>
   </rdf:RDF>
</x:xmpmeta>





















<?xpacket end="w"?></metadata>
<defs>
    <style>
      .cls-1 {
        fill: #fff;
        fill-rule: evenodd;
      }
    </style>
  </defs>
  <path class="cls-1" d="M1010.92,451.28h-0.3v-2.475a6.132,6.132,0,0,0-12.246,0,0.561,0.561,0,0,0,1.121,0,5.01,5.01,0,0,1,10,0v2.475H998.083A1.057,1.057,0,0,0,997,452.307v6.615a3.171,3.171,0,0,0,3.25,3.078h8.5a3.173,3.173,0,0,0,3.25-3.078v-6.615A1.059,1.059,0,0,0,1010.92,451.28Zm-0.04,7.642a2.074,2.074,0,0,1-2.13,2.015h-8.5a2.074,2.074,0,0,1-2.125-2.015v-6.579h12.755v6.579h0Zm-6.38-.216a1.99,1.99,0,1,0-2.09-1.987A2.048,2.048,0,0,0,1004.5,458.706Zm0-2.916a0.928,0.928,0,1,1-.97.929A0.956,0.956,0,0,1,1004.5,455.79Z" transform="translate(-997 -443)"/>
</svg>
