<svg xmlns="http://www.w3.org/2000/svg" width="19" height="19" viewBox="0 0 19 19">
  <metadata><?xpacket begin=" " id="W5M0MpCehiHzreSzNTczkc9d"?>
<x:xmpmeta xmlns:x="adobe:ns:meta/" x:xmptk="Adobe XMP Core 5.6-c138 79.159824, 2016/09/14-01:09:01        ">
   <rdf:RDF xmlns:rdf="http://www.w3.org/1999/02/22-rdf-syntax-ns#">
      <rdf:Description rdf:about=""/>
   </rdf:RDF>
</x:xmpmeta>





















<?xpacket end="w"?></metadata>
<defs>
    <style>
      .cls-1 {
        fill: #fff;
        fill-rule: evenodd;
      }
    </style>
  </defs>
  <path class="cls-1" d="M1004.42,952.238h0.15a4.65,4.65,0,0,0,3.26-1.2c1.78-1.708,1.48-4.635,1.45-4.915a3.958,3.958,0,0,0-2.24-3.568,5.9,5.9,0,0,0-2.49-.555h-0.08a5.923,5.923,0,0,0-2.49.539,3.961,3.961,0,0,0-2.27,3.584c-0.032.28-.328,3.207,1.45,4.915A4.633,4.633,0,0,0,1004.42,952.238Zm-3.47-6.016V946.19a3.185,3.185,0,0,1,3.52-3.124h0.05c1.25,0.024,3.37.457,3.52,3.124v0.032c0.01,0.027.33,2.7-1.14,4.111a3.3,3.3,0,0,1-2.38.842h-0.05a3.3,3.3,0,0,1-2.38-.842C1000.63,948.933,1000.94,946.245,1000.95,946.222ZM1014,957.093v-0.012c0-.031-0.01-0.063-0.01-0.1a2.99,2.99,0,0,0-2.09-3.183l-0.05-.012a14.676,14.676,0,0,1-3.84-1.487,0.7,0.7,0,0,0-.87.129,0.479,0.479,0,0,0,.16.74,15.5,15.5,0,0,0,4.22,1.641c1.08,0.326,1.2,1.306,1.23,2.2v0.1a5.993,5.993,0,0,1-.09,1.215,21.4,21.4,0,0,1-16.317,0,5.711,5.711,0,0,1-.1-1.215c0-.032,0-0.063,0-0.1,0.033-.9.153-1.876,1.231-2.2a15.547,15.547,0,0,0,4.219-1.641,0.478,0.478,0,0,0,.16-0.739,0.7,0.7,0,0,0-.87-0.13,14.4,14.4,0,0,1-3.842,1.487l-0.047.012a3.012,3.012,0,0,0-2.1,3.183,0.618,0.618,0,0,1,0,.1v0.012a5.192,5.192,0,0,0,.236,1.782,0.535,0.535,0,0,0,.241.248,22.62,22.62,0,0,0,18.062,0,0.609,0.609,0,0,0,.24-0.248A5.574,5.574,0,0,0,1014,957.093Z" transform="translate(-995 -942)"/>
</svg>
